<?xml version="1.0" encoding="utf-8" ?>
<svg xmlns="http://www.w3.org/2000/svg" xmlns:xlink="http://www.w3.org/1999/xlink" width="254" height="217">
	<!-- <path fill="#FEFEFE" d="M-0 -0L254 0L254 217L-0 217L0 -0Z"/> -->
	<path fill="#1E3151" d="M116.962 20.296L142.204 45.6033L151.091 54.4852C152.899 56.2894 154.681 58.3367 156.769 59.8101L117.013 59.9572L116.962 20.296Z"/>
	<path fill="#1E3151" d="M179.187 80.3392L181.634 80.1999C188.384 80.2215 194.878 82.646 199.663 87.4836C208.284 96.1981 206.576 108.611 206.513 119.786C207.359 120.336 209.31 120.319 210.375 120.723C212.894 121.679 214.799 123.409 215.868 125.888C216.205 126.672 216.434 127.512 216.494 128.364C216.99 135.459 216.575 142.875 216.576 149.999L216.57 165.06C216.568 167.574 217.021 171.252 216.075 173.566C215.547 174.855 214.946 175.988 213.951 176.984C212.659 178.278 211.065 179.17 209.278 179.588C206.39 180.264 202.931 179.969 199.973 179.973L184.625 179.966L165.833 179.981C162.195 179.978 158.315 180.277 154.731 179.651C153.289 179.399 152.008 178.854 150.839 177.967C148.758 176.388 147.542 174.326 147.2 171.733C146.885 169.343 147.047 166.777 147.043 164.362L147.03 151.639L147.038 137.042C147.041 134.304 146.885 131.445 147.175 128.725C147.341 127.169 147.726 125.755 148.574 124.424C149.682 122.687 151.517 121.309 153.454 120.635C153.88 120.487 157.221 119.915 157.239 119.892C157.242 119.888 157.083 117.616 157.08 117.386C157.01 111.739 156.487 105.357 157.651 99.8116C158.45 96.0031 160.043 92.3937 162.416 89.2989C166.511 83.9568 172.667 81.214 179.187 80.3392Z"/>
	<path fill="#FEFEFE" d="M179.723 95.0321L181.658 94.9751C184.874 94.9649 187.139 95.7257 189.442 98.0312C192.741 101.335 192.048 106.379 192.053 110.642L192.052 120.015L184.125 120.032L171.554 120.013L171.548 110.173C171.55 106.635 171.152 102.79 172.982 99.6017C174.452 97.0422 176.971 95.7584 179.723 95.0321Z"/>
	<path fill="#1E3151" d="M58.0821 20.1051L106.609 20.0472L106.571 21.8599L106.547 48.9126L106.553 56.863C106.556 58.689 106.468 60.5616 106.812 62.3629C107.129 64.0235 108.112 65.9263 109.315 67.129C110.643 68.4565 112.336 69.419 114.178 69.7964C115.858 70.1405 117.693 70.0263 119.402 70.0293L127.698 70.0338L156.487 70.0457L156.544 70.1442C156.724 70.5684 156.6 71.5341 156.597 72.0262L156.562 78.375C156.564 78.8791 156.771 80.0074 156.646 80.4504C156.589 80.651 155.989 81.1901 155.81 81.3977L153.35 84.401C149.87 89.0617 148.041 94.144 147.056 99.8256C146.51 102.974 146.553 106.136 146.555 109.318C146.555 109.591 146.724 112.522 146.675 112.598C146.377 113.065 144.976 113.853 144.487 114.24C141.159 116.871 138.811 120.096 137.599 124.182C137.057 126.01 136.741 127.927 136.609 129.828C136.428 132.459 136.555 135.181 136.552 137.821L136.544 152.695L136.551 164.681C136.554 167.148 136.437 169.67 136.72 172.122C137.03 174.806 137.739 177.403 139.033 179.781L138.07 179.851C132.626 180.209 127.042 179.969 121.585 179.968L92.1017 179.975L68.8423 179.975C63.6704 179.972 58.2936 180.29 53.1797 179.405C49.6825 178.8 46.3896 177.112 43.7409 174.77C39.5583 171.072 37.505 166.195 37.1543 160.703C36.6168 152.287 37.043 143.633 37.04 135.181L37.0337 85.7517L37.0418 53.7929C37.0445 48.3859 36.5793 42.4849 37.3432 37.1328C37.895 33.2672 39.5712 29.7312 42.1556 26.812C46.4998 21.9048 51.793 20.4665 58.0821 20.1051Z"/>
</svg>
