<?xml version="1.0" encoding="utf-8" ?>
<svg xmlns="http://www.w3.org/2000/svg" xmlns:xlink="http://www.w3.org/1999/xlink" width="120" height="48">
	<path fill="#0A3972" d="M54.7823 0L64.4834 0C65.411 0.53235 66.2718 0.517569 67.2315 0.854206C70.8659 2.12912 73.7897 4.31784 74.8402 8.1867C75.4309 10.3621 75.3111 12.8004 75.3457 15.043L75.3633 26.8931C75.3463 30.7005 75.6597 34.8063 75.1664 38.5687C74.9996 39.8414 74.4824 41.2673 73.843 42.3758C72.3868 44.9007 69.6905 46.3568 66.9869 47.251C66.3468 47.4626 65.4893 47.559 64.9699 48L54.0456 48C50.824 46.5071 46.9499 45.5728 45.1299 42.1734C43.3459 38.8411 43.5964 32.3267 44.6806 28.7622C46.1688 23.8699 51.3225 22.6067 55.5822 21.2867C58.4026 20.4127 61.8244 19.3584 64.4134 17.9768C66.0622 17.0969 66.7167 16.111 67.249 14.3424C67.6868 12.8874 67.5701 11.2153 66.8409 9.87461C66.063 8.44444 64.5868 7.52649 63.0445 7.08541C60.5007 6.3579 56.8087 6.47698 54.4603 7.77467C52.9555 8.60621 52.0828 11.3746 51.6308 12.9437L43.8897 13.1447C43.9283 11.0861 44.0348 9.14477 44.6459 7.15672C45.4902 4.40997 48.4809 2.17241 51.0866 1.22468C52.3265 0.773696 53.601 0.626268 54.7823 0ZM66.8157 24.875C62.5892 27.2621 53.5856 27.7719 52.1076 33.0617C51.6569 34.6746 51.8909 36.9121 52.7192 38.375C53.0603 38.9774 53.5423 39.6352 54.0899 40.0578C56.6832 41.4798 60.599 41.5207 63.4053 40.7038C64.6944 40.3286 65.7425 39.5551 66.3907 38.3729C67.1848 36.9245 67.1924 35.243 67.2184 33.6252C67.2634 30.819 66.9635 27.678 67.3519 24.9184L66.8157 24.875Z"/>
</svg>
